<mxfile host="app.diagrams.net" agent="Mozilla/5.0 (Windows NT 10.0; Win64; x64) AppleWebKit/537.36 (KHTML, like Gecko) Chrome/129.0.0.0 Safari/537.36" version="24.7.17">
  <diagram name="Page-1" id="61aBcqDYQ_I5xitm44R1">
    <mxGraphModel dx="1434" dy="746" grid="1" gridSize="10" guides="1" tooltips="1" connect="1" arrows="1" fold="1" page="1" pageScale="1" pageWidth="827" pageHeight="1169" math="0" shadow="0">
      <root>
        <mxCell id="0" />
        <mxCell id="1" parent="0" />
        <mxCell id="x_x2ChQoWKTnFUa9Nx9C-1" value="&lt;font style=&quot;vertical-align: inherit;&quot;&gt;&lt;font style=&quot;vertical-align: inherit;&quot;&gt;&lt;font style=&quot;vertical-align: inherit;&quot;&gt;&lt;font style=&quot;vertical-align: inherit;&quot;&gt;Visiteur&lt;/font&gt;&lt;/font&gt;&lt;/font&gt;&lt;/font&gt;" style="swimlane;fontStyle=0;childLayout=stackLayout;horizontal=1;startSize=30;horizontalStack=0;resizeParent=1;resizeParentMax=0;resizeLast=0;collapsible=1;marginBottom=0;whiteSpace=wrap;html=1;" vertex="1" parent="1">
          <mxGeometry x="110" y="110" width="140" height="120" as="geometry" />
        </mxCell>
        <mxCell id="x_x2ChQoWKTnFUa9Nx9C-2" value="&lt;font style=&quot;vertical-align: inherit;&quot;&gt;&lt;font style=&quot;vertical-align: inherit;&quot;&gt;&lt;font style=&quot;vertical-align: inherit;&quot;&gt;&lt;font style=&quot;vertical-align: inherit;&quot;&gt;&lt;font style=&quot;vertical-align: inherit;&quot;&gt;&lt;font style=&quot;vertical-align: inherit;&quot;&gt;identifiant&lt;/font&gt;&lt;/font&gt;&lt;/font&gt;&lt;/font&gt;&lt;/font&gt;&lt;/font&gt;" style="text;strokeColor=none;fillColor=none;align=left;verticalAlign=middle;spacingLeft=4;spacingRight=4;overflow=hidden;points=[[0,0.5],[1,0.5]];portConstraint=eastwest;rotatable=0;whiteSpace=wrap;html=1;" vertex="1" parent="x_x2ChQoWKTnFUa9Nx9C-1">
          <mxGeometry y="30" width="140" height="30" as="geometry" />
        </mxCell>
        <mxCell id="x_x2ChQoWKTnFUa9Nx9C-3" value="&lt;font style=&quot;vertical-align: inherit;&quot;&gt;&lt;font style=&quot;vertical-align: inherit;&quot;&gt;&lt;font style=&quot;vertical-align: inherit;&quot;&gt;&lt;font style=&quot;vertical-align: inherit;&quot;&gt;&lt;font style=&quot;vertical-align: inherit;&quot;&gt;&lt;font style=&quot;vertical-align: inherit;&quot;&gt;&lt;font style=&quot;vertical-align: inherit;&quot;&gt;&lt;font style=&quot;vertical-align: inherit;&quot;&gt;Nom&lt;/font&gt;&lt;/font&gt;&lt;/font&gt;&lt;/font&gt;&lt;/font&gt;&lt;/font&gt;&lt;/font&gt;&lt;/font&gt;" style="text;strokeColor=none;fillColor=none;align=left;verticalAlign=middle;spacingLeft=4;spacingRight=4;overflow=hidden;points=[[0,0.5],[1,0.5]];portConstraint=eastwest;rotatable=0;whiteSpace=wrap;html=1;" vertex="1" parent="x_x2ChQoWKTnFUa9Nx9C-1">
          <mxGeometry y="60" width="140" height="30" as="geometry" />
        </mxCell>
        <mxCell id="x_x2ChQoWKTnFUa9Nx9C-4" value="&lt;div&gt;&lt;span style=&quot;background-color: initial;&quot;&gt;&lt;font style=&quot;vertical-align: inherit;&quot;&gt;&lt;font style=&quot;vertical-align: inherit;&quot;&gt;&lt;font style=&quot;vertical-align: inherit;&quot;&gt;&lt;font style=&quot;vertical-align: inherit;&quot;&gt;adresse&lt;/font&gt;&lt;/font&gt;&lt;/font&gt;&lt;/font&gt;&lt;/span&gt;&lt;br&gt;&lt;/div&gt;" style="text;strokeColor=none;fillColor=none;align=left;verticalAlign=middle;spacingLeft=4;spacingRight=4;overflow=hidden;points=[[0,0.5],[1,0.5]];portConstraint=eastwest;rotatable=0;whiteSpace=wrap;html=1;" vertex="1" parent="x_x2ChQoWKTnFUa9Nx9C-1">
          <mxGeometry y="90" width="140" height="30" as="geometry" />
        </mxCell>
        <mxCell id="x_x2ChQoWKTnFUa9Nx9C-6" value="&lt;font style=&quot;vertical-align: inherit;&quot;&gt;&lt;font style=&quot;vertical-align: inherit;&quot;&gt;&lt;font style=&quot;vertical-align: inherit;&quot;&gt;&lt;font style=&quot;vertical-align: inherit;&quot;&gt;&lt;font style=&quot;vertical-align: inherit;&quot;&gt;&lt;font style=&quot;vertical-align: inherit;&quot;&gt;Oeuvre d&#39;art&lt;/font&gt;&lt;/font&gt;&lt;/font&gt;&lt;/font&gt;&lt;/font&gt;&lt;/font&gt;" style="swimlane;fontStyle=0;childLayout=stackLayout;horizontal=1;startSize=30;horizontalStack=0;resizeParent=1;resizeParentMax=0;resizeLast=0;collapsible=1;marginBottom=0;whiteSpace=wrap;html=1;" vertex="1" parent="1">
          <mxGeometry x="580" y="120" width="140" height="80" as="geometry" />
        </mxCell>
        <mxCell id="x_x2ChQoWKTnFUa9Nx9C-9" value="&lt;div&gt;&lt;span style=&quot;background-color: initial;&quot;&gt;&lt;font style=&quot;vertical-align: inherit;&quot;&gt;&lt;font style=&quot;vertical-align: inherit;&quot;&gt;&lt;font style=&quot;vertical-align: inherit;&quot;&gt;&lt;font style=&quot;vertical-align: inherit;&quot;&gt;&lt;font style=&quot;vertical-align: inherit;&quot;&gt;&lt;font style=&quot;vertical-align: inherit;&quot;&gt;&lt;font style=&quot;vertical-align: inherit;&quot;&gt;&lt;font style=&quot;vertical-align: inherit;&quot;&gt;date d&#39;achat&lt;/font&gt;&lt;/font&gt;&lt;/font&gt;&lt;/font&gt;&lt;/font&gt;&lt;/font&gt;&lt;/font&gt;&lt;/font&gt;&lt;/span&gt;&lt;br&gt;&lt;/div&gt;" style="text;strokeColor=none;fillColor=none;align=left;verticalAlign=middle;spacingLeft=4;spacingRight=4;overflow=hidden;points=[[0,0.5],[1,0.5]];portConstraint=eastwest;rotatable=0;whiteSpace=wrap;html=1;" vertex="1" parent="x_x2ChQoWKTnFUa9Nx9C-6">
          <mxGeometry y="30" width="140" height="50" as="geometry" />
        </mxCell>
        <mxCell id="x_x2ChQoWKTnFUa9Nx9C-10" value="&lt;font style=&quot;vertical-align: inherit;&quot;&gt;&lt;font style=&quot;vertical-align: inherit;&quot;&gt;achat&lt;/font&gt;&lt;/font&gt;" style="ellipse;whiteSpace=wrap;html=1;" vertex="1" parent="1">
          <mxGeometry x="353.5" y="120" width="120" height="80" as="geometry" />
        </mxCell>
        <mxCell id="x_x2ChQoWKTnFUa9Nx9C-11" value="" style="endArrow=none;html=1;rounded=0;entryX=0;entryY=0.5;entryDx=0;entryDy=0;exitX=1;exitY=0.5;exitDx=0;exitDy=0;" edge="1" parent="1" source="x_x2ChQoWKTnFUa9Nx9C-3" target="x_x2ChQoWKTnFUa9Nx9C-10">
          <mxGeometry width="50" height="50" relative="1" as="geometry">
            <mxPoint x="390" y="410" as="sourcePoint" />
            <mxPoint x="440" y="360" as="targetPoint" />
          </mxGeometry>
        </mxCell>
        <mxCell id="x_x2ChQoWKTnFUa9Nx9C-12" value="" style="endArrow=none;html=1;rounded=0;entryX=0;entryY=0.5;entryDx=0;entryDy=0;" edge="1" parent="1" source="x_x2ChQoWKTnFUa9Nx9C-10">
          <mxGeometry width="50" height="50" relative="1" as="geometry">
            <mxPoint x="476" y="172.5" as="sourcePoint" />
            <mxPoint x="580" y="147.5" as="targetPoint" />
          </mxGeometry>
        </mxCell>
        <mxCell id="x_x2ChQoWKTnFUa9Nx9C-13" value="&lt;font style=&quot;vertical-align: inherit;&quot;&gt;&lt;font style=&quot;vertical-align: inherit;&quot;&gt;&lt;font style=&quot;vertical-align: inherit;&quot;&gt;&lt;font style=&quot;vertical-align: inherit;&quot;&gt;0,N&lt;/font&gt;&lt;/font&gt;&lt;/font&gt;&lt;/font&gt;" style="text;html=1;align=center;verticalAlign=middle;whiteSpace=wrap;rounded=0;" vertex="1" parent="1">
          <mxGeometry x="270" y="135" width="60" height="30" as="geometry" />
        </mxCell>
        <mxCell id="x_x2ChQoWKTnFUa9Nx9C-14" value="&lt;font style=&quot;vertical-align: inherit;&quot;&gt;&lt;font style=&quot;vertical-align: inherit;&quot;&gt;&lt;font style=&quot;vertical-align: inherit;&quot;&gt;&lt;font style=&quot;vertical-align: inherit;&quot;&gt;&lt;font style=&quot;vertical-align: inherit;&quot;&gt;&lt;font style=&quot;vertical-align: inherit;&quot;&gt;&lt;font style=&quot;vertical-align: inherit;&quot;&gt;&lt;font style=&quot;vertical-align: inherit;&quot;&gt;Categories&lt;/font&gt;&lt;/font&gt;&lt;/font&gt;&lt;/font&gt;&lt;/font&gt;&lt;/font&gt;&lt;/font&gt;&lt;/font&gt;" style="swimlane;fontStyle=0;childLayout=stackLayout;horizontal=1;startSize=30;horizontalStack=0;resizeParent=1;resizeParentMax=0;resizeLast=0;collapsible=1;marginBottom=0;whiteSpace=wrap;html=1;" vertex="1" parent="1">
          <mxGeometry x="100" y="450" width="140" height="90" as="geometry" />
        </mxCell>
        <mxCell id="x_x2ChQoWKTnFUa9Nx9C-28" value="&lt;div&gt;&lt;span style=&quot;background-color: initial;&quot;&gt;&lt;font style=&quot;vertical-align: inherit;&quot;&gt;&lt;font style=&quot;vertical-align: inherit;&quot;&gt;&lt;font style=&quot;vertical-align: inherit;&quot;&gt;&lt;font style=&quot;vertical-align: inherit;&quot;&gt;&lt;font style=&quot;vertical-align: inherit;&quot;&gt;&lt;font style=&quot;vertical-align: inherit;&quot;&gt;&lt;font style=&quot;vertical-align: inherit;&quot;&gt;&lt;font style=&quot;vertical-align: inherit;&quot;&gt;code&lt;/font&gt;&lt;/font&gt;&lt;/font&gt;&lt;/font&gt;&lt;/font&gt;&lt;/font&gt;&lt;/font&gt;&lt;/font&gt;&lt;/span&gt;&lt;span style=&quot;color: rgba(0, 0, 0, 0); font-family: monospace; font-size: 0px; text-wrap: nowrap; background-color: initial;&quot;&gt;&lt;font style=&quot;vertical-align: inherit;&quot;&gt;&lt;font style=&quot;vertical-align: inherit;&quot;&gt;%3CmxGraphModel%3E%3Croot%3E%3CmxCell%20id%3D%220%22%2F%3E%3CmxCell%20id%3D%221%22%20parent%3D%220%22%2F%3E%3CmxCell%20id%3D%222%22%20value%3D%22%26lt%3Bdiv%26gt%3B%26lt%3Bspan%20 style%3D%26quot%3Bbackground-color%3A%20initial%3B%26quot%3B%26gt%3B%26lt%3Bpolice%20style%3D%26quot%3Bvertical-align%3A%20inherit%3B%26quot%3B%26gt%3B%26lt%3Bpolice%20style%3D%26quot% 3Bvertical-align%3A%20inherit%3B%26quot%3B%26gt%3B%26lt%3Bfont%20style%3D%26quot%3Bvertical-align%3A%20inherit%3B%26quot%3B%26gt%3B%26lt%3Bfont%20style%3D%26quot%3Bvertical-align%3A%20inherit%3B%26quot%3B%26gt%3B%26lt%3Bfont%20style%3D%26quot%3Bvertical-align%3A%20inherit%3B%26quot%3B%26gt%3B%26lt%3Bfont%20style%3D%26quot%3Bvertical-align%3A%20inherit%3B%26 quot%3B%26gt%3Bdate%20d&#39;achat%26lt%3B%2Ffont%26gt%3B%26lt%3B%2Ffont%26gt%3B%26lt%3B%2Ffont%26gt%3B%26lt%3B%2Ffont%26gt%3B%26lt%3B%2Ffont%26gt%3B%26lt%3B%2Ffont%26gt%3B%26lt%3B%2Ffont%26gt%3B%26lt%3B%2Fs pan%26gt%3B%26lt%3Bbr%26gt%3B%26lt%3B%2Fdiv%26gt%3B%22%20style%3D%22text%3BstrokeColor%3Dnone%3BfillColor%3Dnone%3Balign%3Dleft%3BverticalAlign%3Dmiddle%3BspacingLeft%3D4%3BspacingRight%3D4%3Boverflow%3Dhidden%3Bpoints%3D%5B%5B0%2C0.5%5D%2C%5B1%2C0.5%5D%5D%3BportConstraint%3Deastwest%3Brotatable%3D0%3BwhiteSpace%3Dwrap%3Bhtml%3D1%3B%22%20sommet%3D%221%22%20p ne sont pas%3D%221%22%3E%3CmxGeometry%20x%3D%22580%22%20y%3D%22150%22%20largeur%3D%22140%22%20hauteur%3D%2230%22%20comme%3D%22geometry%22%2F%3E%3C%2FmxCell%3E%3C%2Froot%3E%3C%2FmxGraphModel%3E&lt;/font&gt;&lt;/font&gt;&lt;/span&gt;&lt;br&gt;&lt;/div&gt;" style="text;strokeColor=none;fillColor=none;align=left;verticalAlign=middle;spacingLeft=4;spacingRight=4;overflow=hidden;points=[[0,0.5],[1,0.5]];portConstraint=eastwest;rotatable=0;whiteSpace=wrap;html=1;" vertex="1" parent="x_x2ChQoWKTnFUa9Nx9C-14">
          <mxGeometry y="30" width="140" height="30" as="geometry" />
        </mxCell>
        <mxCell id="x_x2ChQoWKTnFUa9Nx9C-29" value="&lt;div&gt;&lt;font style=&quot;vertical-align: inherit;&quot;&gt;&lt;font style=&quot;vertical-align: inherit;&quot;&gt;description&lt;/font&gt;&lt;/font&gt;&lt;/div&gt;" style="text;strokeColor=none;fillColor=none;align=left;verticalAlign=middle;spacingLeft=4;spacingRight=4;overflow=hidden;points=[[0,0.5],[1,0.5]];portConstraint=eastwest;rotatable=0;whiteSpace=wrap;html=1;" vertex="1" parent="x_x2ChQoWKTnFUa9Nx9C-14">
          <mxGeometry y="60" width="140" height="30" as="geometry" />
        </mxCell>
        <mxCell id="x_x2ChQoWKTnFUa9Nx9C-16" value="&lt;font style=&quot;vertical-align: inherit;&quot;&gt;&lt;font style=&quot;vertical-align: inherit;&quot;&gt;classé&lt;/font&gt;&lt;/font&gt;" style="ellipse;whiteSpace=wrap;html=1;" vertex="1" parent="1">
          <mxGeometry x="110" y="290" width="120" height="80" as="geometry" />
        </mxCell>
        <mxCell id="x_x2ChQoWKTnFUa9Nx9C-17" value="&lt;font style=&quot;vertical-align: inherit;&quot;&gt;&lt;font style=&quot;vertical-align: inherit;&quot;&gt;&lt;font style=&quot;vertical-align: inherit;&quot;&gt;&lt;font style=&quot;vertical-align: inherit;&quot;&gt;&lt;font style=&quot;vertical-align: inherit;&quot;&gt;&lt;font style=&quot;vertical-align: inherit;&quot;&gt;0&lt;/font&gt;&lt;/font&gt;&lt;/font&gt;&lt;/font&gt;&lt;/font&gt;&lt;/font&gt;&lt;span style=&quot;background-color: initial;&quot;&gt;&lt;font style=&quot;vertical-align: inherit;&quot;&gt;&lt;font style=&quot;vertical-align: inherit;&quot;&gt;,1&lt;/font&gt;&lt;/font&gt;&lt;/span&gt;" style="text;html=1;align=center;verticalAlign=middle;whiteSpace=wrap;rounded=0;" vertex="1" parent="1">
          <mxGeometry x="490" y="150" width="60" height="30" as="geometry" />
        </mxCell>
        <mxCell id="x_x2ChQoWKTnFUa9Nx9C-18" value="" style="endArrow=none;html=1;rounded=0;exitX=0.521;exitY=1;exitDx=0;exitDy=0;exitPerimeter=0;" edge="1" parent="1" source="x_x2ChQoWKTnFUa9Nx9C-4" target="x_x2ChQoWKTnFUa9Nx9C-16">
          <mxGeometry width="50" height="50" relative="1" as="geometry">
            <mxPoint x="256" y="315" as="sourcePoint" />
            <mxPoint x="360" y="290" as="targetPoint" />
          </mxGeometry>
        </mxCell>
        <mxCell id="x_x2ChQoWKTnFUa9Nx9C-30" value="&lt;font style=&quot;vertical-align: inherit;&quot;&gt;&lt;font style=&quot;vertical-align: inherit;&quot;&gt;1,1&lt;/font&gt;&lt;/font&gt;&lt;div&gt;&lt;font style=&quot;vertical-align: inherit;&quot;&gt;&lt;font style=&quot;vertical-align: inherit;&quot;&gt;&lt;br&gt;&lt;/font&gt;&lt;/font&gt;&lt;/div&gt;" style="edgeLabel;html=1;align=center;verticalAlign=middle;resizable=0;points=[];" vertex="1" connectable="0" parent="x_x2ChQoWKTnFUa9Nx9C-18">
          <mxGeometry x="0.0017" y="-1" relative="1" as="geometry">
            <mxPoint as="offset" />
          </mxGeometry>
        </mxCell>
        <mxCell id="x_x2ChQoWKTnFUa9Nx9C-19" value="" style="endArrow=none;html=1;rounded=0;entryX=0.5;entryY=0;entryDx=0;entryDy=0;" edge="1" parent="1" source="x_x2ChQoWKTnFUa9Nx9C-16" target="x_x2ChQoWKTnFUa9Nx9C-14">
          <mxGeometry width="50" height="50" relative="1" as="geometry">
            <mxPoint x="461" y="260" as="sourcePoint" />
            <mxPoint x="570" y="342" as="targetPoint" />
          </mxGeometry>
        </mxCell>
        <mxCell id="x_x2ChQoWKTnFUa9Nx9C-31" value="&lt;font style=&quot;vertical-align: inherit;&quot;&gt;&lt;font style=&quot;vertical-align: inherit;&quot;&gt;0,n&lt;/font&gt;&lt;/font&gt;" style="edgeLabel;html=1;align=center;verticalAlign=middle;resizable=0;points=[];" vertex="1" connectable="0" parent="x_x2ChQoWKTnFUa9Nx9C-19">
          <mxGeometry x="-0.15" y="1" relative="1" as="geometry">
            <mxPoint as="offset" />
          </mxGeometry>
        </mxCell>
      </root>
    </mxGraphModel>
  </diagram>
</mxfile>
